<svg xmlns="http://www.w3.org/2000/svg" width="1388" height="160" fill="none" viewBox="0 0 1388 160" preserveAspectRatio="xMidYMid meet" className="w-full h-auto inline-block ">
  <path fill="#000" d="M145.523 60.532h-42.747c-.304-3.548-1.112-6.768-2.426-9.657-1.263-2.89-3.032-5.374-5.305-7.453-2.224-2.13-4.927-3.752-8.11-4.867-3.184-1.166-6.796-1.749-10.839-1.749-7.074 0-13.061 1.724-17.963 5.171-4.85 3.448-8.539 8.39-11.066 14.83-2.475 6.438-3.713 14.169-3.713 23.193 0 9.531 1.263 17.516 3.79 23.954 2.576 6.388 6.29 11.204 11.14 14.449 4.852 3.194 10.688 4.791 17.51 4.791 3.89 0 7.376-.482 10.459-1.445 3.082-1.014 5.76-2.459 8.034-4.335a22.417 22.417 0 0 0 5.533-6.768c1.465-2.687 2.45-5.703 2.956-9.049l42.747.304c-.505 6.591-2.35 13.308-5.533 20.152-3.183 6.794-7.706 13.08-13.567 18.86-5.811 5.728-13.011 10.342-21.601 13.84-8.59 3.498-18.57 5.247-29.938 5.247-14.25 0-27.033-3.067-38.352-9.202-11.268-6.134-20.186-15.158-26.755-27.072C3.26 111.812 0 97.237 0 80c0-17.338 3.335-31.94 10.005-43.802 6.67-11.914 15.664-20.913 26.982-26.996C48.306 3.067 60.937 0 74.884 0c9.802 0 18.822 1.343 27.058 4.03 8.236 2.687 15.462 6.616 21.677 11.788 6.215 5.12 11.217 11.432 15.007 18.935 3.789 7.503 6.088 16.096 6.897 25.78ZM315.015 80c0 17.338-3.36 31.965-10.08 43.878-6.721 11.863-15.79 20.862-27.21 26.997-11.419 6.083-24.153 9.125-38.2 9.125-14.148 0-26.932-3.067-38.351-9.202-11.369-6.185-20.414-15.209-27.134-27.072-6.67-11.914-10.005-26.489-10.005-43.726 0-17.338 3.335-31.94 10.005-43.802 6.72-11.914 15.765-20.913 27.134-26.996C212.593 3.067 225.377 0 239.525 0c14.047 0 26.781 3.067 38.2 9.202 11.42 6.083 20.489 15.082 27.21 26.996 6.72 11.863 10.08 26.464 10.08 43.802Zm-43.353 0c0-9.328-1.238-17.186-3.714-23.574-2.426-6.439-6.038-11.306-10.839-14.6-4.749-3.347-10.611-5.02-17.584-5.02-6.973 0-12.859 1.673-17.659 5.02-4.75 3.294-8.363 8.161-10.839 14.6-2.425 6.388-3.638 14.246-3.638 23.574 0 9.328 1.213 17.212 3.638 23.65 2.476 6.388 6.089 11.255 10.839 14.601 4.8 3.295 10.686 4.943 17.659 4.943 6.973 0 12.835-1.648 17.584-4.943 4.801-3.346 8.413-8.213 10.839-14.601 2.476-6.438 3.714-14.322 3.714-23.65ZM334.513 157.871V2.129h42.141v121.673h62.757v34.069H334.513ZM456.445 157.871V2.129h42.141v121.673h62.757v34.069H456.445ZM578.378 157.871V2.129h111.87v34.069h-69.73v26.768h63.97v34.068h-63.97v26.768h69.427v34.069H578.378Z" className="origin-[345.124px_80px] transform-none"></path>
  <path fill="#000" d="M856.065 60.532h-42.748c-.303-3.548-1.111-6.768-2.425-9.657-1.263-2.89-3.032-5.374-5.306-7.453-2.223-2.13-4.926-3.752-8.109-4.867-3.184-1.166-6.797-1.749-10.839-1.749-7.074 0-13.061 1.724-17.963 5.171-4.851 3.448-8.539 8.39-11.066 14.83-2.476 6.438-3.713 14.169-3.713 23.193 0 9.531 1.263 17.516 3.789 23.954 2.577 6.388 6.291 11.204 11.142 14.449 4.851 3.194 10.687 4.791 17.508 4.791 3.891 0 7.377-.482 10.459-1.445 3.083-1.014 5.761-2.459 8.035-4.335a22.414 22.414 0 0 0 5.532-6.768c1.466-2.687 2.451-5.703 2.956-9.049l42.748.304c-.506 6.591-2.35 13.308-5.533 20.152-3.183 6.794-7.706 13.08-13.567 18.86-5.811 5.728-13.011 10.342-21.601 13.84-8.59 3.498-18.57 5.247-29.939 5.247-14.249 0-27.032-3.067-38.351-9.202-11.268-6.134-20.186-15.158-26.755-27.072-6.518-11.914-9.777-26.489-9.777-43.726 0-17.338 3.335-31.94 10.005-43.802 6.669-11.914 15.664-20.913 26.982-26.996C758.847 3.067 771.48 0 785.425 0c9.803 0 18.822 1.343 27.059 4.03 8.236 2.687 15.461 6.616 21.676 11.788 6.215 5.12 11.218 11.432 15.008 18.935 3.789 7.503 6.088 16.096 6.897 25.78ZM870.939 36.198V2.129h134.911v34.069h-46.688V157.87h-41.534V36.198h-46.689ZM1063.85 2.13V157.87h-42.14V2.129h42.14ZM1234.2 80c0 17.338-3.36 31.965-10.08 43.878-6.72 11.863-15.79 20.862-27.21 26.997-11.42 6.083-24.16 9.125-38.2 9.125-14.15 0-26.94-3.067-38.35-9.202-11.37-6.185-20.42-15.209-27.14-27.072-6.67-11.914-10-26.489-10-43.726 0-17.338 3.33-31.94 10-43.802 6.72-11.914 15.77-20.913 27.14-26.996C1131.77 3.067 1144.56 0 1158.71 0c14.04 0 26.78 3.067 38.2 9.202 11.42 6.083 20.49 15.082 27.21 26.996 6.72 11.863 10.08 26.464 10.08 43.802Zm-43.36 0c0-9.328-1.23-17.186-3.71-23.574-2.43-6.439-6.04-11.306-10.84-14.6-4.75-3.347-10.61-5.02-17.58-5.02-6.98 0-12.86 1.673-17.66 5.02-4.75 3.294-8.37 8.161-10.84 14.6-2.43 6.388-3.64 14.246-3.64 23.574 0 9.328 1.21 17.212 3.64 23.65 2.47 6.388 6.09 11.255 10.84 14.601 4.8 3.295 10.68 4.943 17.66 4.943 6.97 0 12.83-1.648 17.58-4.943 4.8-3.346 8.41-8.213 10.84-14.601 2.48-6.438 3.71-14.322 3.71-23.65ZM1388 2.13V157.87h-35.17l-56.09-81.825h-.9v81.825h-42.15V2.129h35.78l55.18 81.521h1.21V2.13H1388Z" className="origin-[1049.27px_80px] transform-none"></path>
</svg>