<svg xmlns="http://www.w3.org/2000/svg" viewBox="0 0 1385 227" className="w-full h-auto mt-8 mb-8 z-3 relative transform-none">
  <path fill="#000" d="M0 3.02h75.09l51.653 125.153h2.604L180.999 3.021h75.091v220.958h-59.031V96.238h-1.736l-49.482 126.015h-35.592L60.767 95.375h-1.736v128.604H0V3.021ZM342.411 223.979h-65.107L350.658 3.021h82.47l73.354 220.958h-65.107L392.761 63.871h-1.736l-48.614 160.108Zm-12.153-87.175H452.66v44.882H330.258v-44.882ZM493.759 51.355V3.021h193.153v48.334h-66.844V223.98h-59.465V51.355h-66.844ZM906.65 85.88h-61.202c-.434-5.035-1.591-9.602-3.472-13.702-1.809-4.1-4.34-7.624-7.596-10.573-3.183-3.02-7.053-5.322-11.611-6.905-4.557-1.654-9.73-2.481-15.517-2.481-10.128 0-18.7 2.445-25.717 7.336-6.945 4.891-12.226 11.904-15.843 21.039-3.545 9.134-5.317 20.103-5.317 32.906 0 13.522 1.808 24.851 5.425 33.985 3.69 9.063 9.007 15.896 15.952 20.499 6.944 4.532 15.3 6.797 25.066 6.797 5.57 0 10.562-.683 14.975-2.05 4.413-1.438 8.247-3.488 11.502-6.149a31.898 31.898 0 0 0 7.921-9.602c2.098-3.813 3.509-8.092 4.232-12.839l61.202.431c-.724 9.351-3.364 18.881-7.922 28.591-4.557 9.638-11.032 18.557-19.424 26.757-8.319 8.127-18.628 14.673-30.926 19.636-12.298 4.963-26.585 7.444-42.862 7.444-20.401 0-38.703-4.352-54.908-13.055-16.132-8.703-28.9-21.506-38.304-38.408-9.333-16.903-13.999-37.582-13.999-62.037 0-24.599 4.775-45.314 14.324-62.145 9.549-16.902 22.426-29.67 38.631-38.3C767.464 4.352 785.55 0 805.516 0c14.034 0 26.947 1.906 38.739 5.718 11.792 3.812 22.136 9.387 31.034 16.723 8.898 7.265 16.06 16.22 21.486 26.865 5.426 10.645 8.717 22.836 9.875 36.574ZM934.022 223.979V3.021h60.333v86.312h79.865V3.02h60.33v220.958h-60.33v-86.312h-79.865v86.312h-60.333ZM1220.93 223.979h-65.11l73.36-220.958h82.47L1385 223.979h-65.11l-48.61-160.108h-1.74l-48.61 160.108Zm-12.15-87.175h122.4v44.882h-122.4v-44.882Z"></path>
</svg>